<?xml version="1.0" standalone="no"?>
<!DOCTYPE svg PUBLIC "-//W3C//DTD SVG 20010904//EN"
 "http://www.w3.org/TR/2001/REC-SVG-20010904/DTD/svg10.dtd">
<svg version="1.0" xmlns="http://www.w3.org/2000/svg"
 width="8334.000000pt" height="8334.000000pt" viewBox="0 0 8334.000000 8334.000000"
 preserveAspectRatio="xMidYMid meet">

<g transform="translate(0.000000,8334.000000) scale(0.100000,-0.100000)"
fill="#000000" stroke="none">
<path d="M42045 68124 c-1203 -61 -2197 -423 -3054 -1110 -883 -708 -1492
-1720 -1730 -2876 -85 -413 -114 -712 -114 -1158 0 -454 34 -790 125 -1225 23
-110 42 -211 42 -225 1 -21 -48 -69 -269 -270 -1988 -1801 -3838 -3600 -5568
-5416 l-267 -281 -78 -23 c-610 -178 -1302 -453 -1897 -755 -1946 -987 -3306
-2397 -3610 -3745 -42 -187 -58 -331 -58 -535 1 -340 42 -526 203 -920 44
-107 80 -199 80 -204 0 -5 -44 -64 -98 -132 -596 -753 -1397 -1811 -2044
-2699 -3523 -4838 -6528 -10036 -8948 -15475 -495 -1114 -1148 -2663 -1236
-2933 -98 -303 -128 -670 -80 -984 108 -700 557 -1310 1196 -1627 74 -36 179
-81 233 -100 l97 -33 86 -114 c607 -804 1462 -1276 2559 -1413 468 -58 1037
-53 1595 14 98 12 514 113 1948 471 1003 251 1825 454 1828 451 12 -12 -18
-436 -37 -522 -108 -483 -116 -1006 -23 -1450 216 -1023 977 -1809 1966 -2029
180 -40 306 -56 508 -63 911 -30 1810 390 2493 1167 508 578 873 1283 1148
2220 239 813 534 1488 967 2210 58 96 106 176 107 178 10 12 4203 962 4245
962 20 0 8 -370 -26 -741 -45 -507 75 -1048 325 -1462 374 -620 1057 -1025
1851 -1098 165 -15 467 -6 640 20 804 122 1492 564 1916 1234 255 401 419 930
449 1442 26 452 88 865 191 1265 46 182 140 486 156 506 5 7 21 14 36 16 15 3
533 107 1152 231 1014 204 1820 363 2493 492 605 115 724 138 1047 199 4327
817 8647 1519 12590 2045 2905 388 5476 675 8420 940 352 32 372 36 474 103
49 32 91 47 234 84 341 87 672 210 997 370 1454 714 2382 2005 2559 3559 49
428 47 764 -10 1325 -338 3374 -1460 6774 -3360 10186 -1251 2248 -2854 4502
-4743 6674 -1465 1683 -3143 3357 -4941 4926 -3270 2854 -7002 5402 -10455
7139 -707 355 -1426 687 -1670 771 -631 217 -1280 354 -1920 404 -139 11 -604
20 -720 14z m640 -984 c527 -39 1076 -151 1613 -329 387 -128 1739 -785 2682
-1303 1574 -865 3120 -1831 4680 -2926 3585 -2517 6860 -5445 9510 -8502 1806
-2084 3354 -4273 4530 -6405 45 -82 95 -172 110 -200 178 -324 589 -1133 772
-1520 1299 -2752 2064 -5461 2324 -8230 20 -214 23 -631 5 -815 -71 -734 -319
-1365 -750 -1909 -109 -137 -405 -432 -546 -544 -303 -241 -669 -451 -1040
-596 -541 -212 -1133 -316 -1695 -297 -231 7 -342 18 -550 52 -666 110 -1243
370 -1730 780 -177 148 -438 423 -424 446 4 6 2 8 -4 4 -12 -7 -147 169 -234
304 -247 387 -431 837 -542 1332 -26 115 -26 139 9 336 136 786 613 1581 1281
2138 538 448 1126 728 1784 848 742 135 1459 -39 2073 -503 519 -392 904 -977
1252 -1901 78 -207 82 -215 119 -252 44 -44 91 -60 167 -56 52 3 75 10 108 31
57 38 91 93 98 158 10 101 -102 623 -198 924 -102 320 -257 679 -388 894 -28
46 -48 89 -44 95 3 6 2 8 -2 3 -5 -4 -36 34 -69 86 -144 220 -338 454 -516
622 -41 39 -79 75 -85 81 -5 6 -35 31 -65 56 -529 435 -1120 676 -1808 738
-267 25 -703 5 -992 -45 -1097 -188 -2168 -840 -2861 -1741 -231 -300 -457
-691 -570 -986 -19 -48 -36 -87 -39 -87 -9 0 -455 751 -452 761 1 5 -2 7 -7 4
-5 -3 -12 1 -15 10 -11 28 -765 1256 -882 1434 -12 19 -76 121 -141 225 -141
225 -314 499 -386 610 -28 44 -112 175 -185 290 -74 116 -152 236 -174 268
-21 32 -36 63 -32 69 4 6 3 9 -2 5 -5 -3 -52 61 -104 141 -52 81 -152 234
-222 341 -70 106 -128 199 -128 206 0 28 73 339 115 489 260 931 652 1683
1188 2281 737 820 1702 1305 2811 1410 182 17 217 28 241 75 35 68 10 146 -58
182 -41 22 -48 23 -407 23 -383 0 -468 -7 -730 -56 -709 -135 -1352 -455
-1929 -961 -556 -488 -1006 -1145 -1296 -1893 -102 -263 -200 -610 -250 -885
-15 -80 -28 -146 -30 -148 -1 -1 -71 100 -155 225 -236 352 -454 674 -561 829
-53 78 -126 183 -161 235 -56 81 -181 261 -283 407 -16 24 -57 82 -90 130 -33
48 -87 125 -121 172 -33 47 -105 148 -159 225 -84 119 -480 673 -682 954 -34
47 -95 131 -136 186 -41 55 -159 215 -262 355 -378 512 -615 826 -995 1319
-52 68 -106 138 -120 156 -43 57 -78 101 -379 484 -299 380 -548 693 -721 902
-287 349 -448 545 -475 579 -16 20 -77 93 -135 161 -57 68 -163 194 -234 279
-134 160 -347 408 -402 470 -17 19 -82 94 -144 165 -62 72 -138 159 -169 195
-59 68 -259 294 -371 420 -37 41 -109 122 -160 180 -98 110 -131 146 -244 270
-38 41 -90 98 -115 125 -44 48 -161 174 -406 440 -179 194 -272 292 -640 675
-170 177 -1251 1258 -1425 1424 -382 366 -706 668 -1020 951 -24 22 -78 72
-120 110 -82 76 -295 266 -370 330 -26 22 -119 103 -206 179 -87 77 -188 165
-224 195 -36 31 -67 58 -70 61 -3 3 -50 44 -105 90 -179 151 -215 183 -210
190 2 4 -2 7 -9 7 -7 0 -62 41 -122 90 -352 294 -816 669 -1094 883 -68 52
-137 107 -154 121 -39 33 -733 554 -841 632 -44 31 -98 71 -120 88 -86 66
-527 377 -794 561 -1019 701 -2149 1399 -3141 1940 -334 182 -633 340 -821
435 -96 48 -128 69 -132 86 -49 213 -79 355 -96 457 -79 471 -92 981 -35 1425
148 1160 728 2150 1647 2807 401 287 909 512 1428 632 232 54 453 86 754 109
101 8 584 6 710 -3z m-4632 -6426 c133 -67 653 -346 782 -419 61 -35 169 -95
240 -135 1990 -1108 4193 -2662 6094 -4299 74 -64 153 -132 175 -151 132 -112
551 -483 745 -659 625 -565 1081 -1000 1751 -1671 690 -689 919 -927 1460
-1510 628 -678 994 -1090 1719 -1935 436 -508 1325 -1595 1693 -2070 85 -110
327 -419 356 -455 15 -19 66 -84 112 -145 46 -60 163 -213 260 -340 157 -205
486 -643 780 -1040 380 -513 954 -1315 1443 -2016 1089 -1564 2437 -3638 3500
-5384 77 -126 167 -275 201 -330 70 -113 601 -999 724 -1207 45 -76 76 -138
69 -138 -7 0 -82 9 -167 20 -307 39 -886 96 -1210 120 -80 5 -172 12 -205 15
-118 10 -543 34 -695 40 -85 3 -175 8 -200 10 -246 21 -1940 26 -2455 6 -326
-12 -875 -38 -985 -46 -36 -2 -110 -7 -165 -10 -55 -3 -125 -8 -155 -10 -30
-2 -93 -7 -140 -10 -667 -43 -1529 -125 -2230 -211 -1419 -173 -3010 -438
-4530 -754 -135 -28 -265 -55 -290 -60 -92 -18 -834 -181 -1085 -239 -1440
-330 -2826 -689 -4175 -1083 -1791 -522 -3735 -1154 -5670 -1844 -390 -139
-411 -150 -426 -210 -18 -72 42 -154 113 -154 20 0 225 56 457 124 1563 462
2978 857 4406 1231 1613 422 3515 864 4995 1160 1518 304 3191 585 4375 735
91 11 212 27 270 35 538 75 1809 208 2635 275 1274 103 2608 144 3915 121 333
-6 652 -13 710 -16 58 -2 173 -7 255 -10 338 -12 588 -27 920 -56 751 -64
1036 -90 1190 -110 262 -33 969 -130 971 -132 1 -1 11 -33 24 -72 100 -310
331 -794 499 -1045 53 -79 53 -79 34 -74 -10 2 -112 22 -228 45 -115 22 -241
46 -280 54 -396 79 -1220 207 -1790 279 -324 41 -512 62 -970 106 -360 35
-978 74 -1405 89 -309 11 -1213 12 -1470 1 -278 -12 -437 -20 -500 -25 -30 -2
-89 -7 -130 -10 -1291 -90 -2464 -332 -3400 -700 -803 -316 -1436 -705 -1947
-1199 -132 -127 -288 -299 -368 -406 -227 -302 -463 -507 -739 -640 -276 -133
-507 -180 -879 -180 -116 0 -234 2 -262 5 -458 53 -806 128 -1360 297 -327 99
-469 137 -675 178 -661 131 -1307 132 -1962 0 -1146 -230 -2168 -848 -2881
-1742 -799 -1003 -1269 -2303 -1352 -3743 -21 -360 -121 -706 -280 -970 -268
-444 -698 -735 -1220 -826 -151 -26 -415 -31 -550 -10 -331 51 -615 188 -820
396 -141 143 -241 308 -303 505 -69 217 -84 395 -58 708 126 1504 -122 2621
-701 3162 -527 493 -1251 536 -2140 126 -67 -31 -125 -56 -128 -56 -3 0 -56
-24 -118 -54 -1010 -486 -2206 -1695 -3039 -3071 -471 -778 -811 -1556 -1082
-2470 -180 -609 -375 -1049 -649 -1460 -505 -759 -1207 -1209 -1917 -1228
-555 -16 -1041 211 -1361 633 -101 133 -215 358 -263 520 -61 205 -80 345 -80
595 0 255 20 435 74 655 27 112 41 285 45 570 5 359 -15 595 -76 885 -130 619
-424 1112 -871 1458 -405 314 -936 506 -1608 582 -209 23 -571 35 -770 25
l-175 -9 -230 -71 c-608 -188 -1572 -475 -2285 -678 -1080 -309 -2009 -563
-2150 -588 -136 -23 -350 -15 -480 20 -228 60 -418 173 -583 345 -242 253
-362 595 -328 931 19 185 39 240 356 1007 l38 92 70 -122 c266 -468 664 -766
1202 -902 223 -57 345 -70 650 -70 448 0 737 52 1315 235 124 40 385 121 580
182 845 262 2519 787 4640 1456 1323 418 3510 1102 4365 1366 665 205 1643
494 1884 556 86 22 129 99 97 173 -16 40 -67 77 -106 77 -53 0 -1118 -217
-1840 -375 -1859 -407 -3946 -932 -7520 -1894 -102 -27 -396 -107 -655 -176
-258 -69 -722 -196 -1030 -282 -308 -85 -647 -180 -753 -209 -681 -189 -1196
-202 -1548 -40 -495 229 -689 815 -548 1655 28 166 91 427 127 521 33 87 300
674 617 1355 18 39 68 144 111 234 44 90 79 165 79 166 0 2 43 92 96 201 53
110 141 294 197 409 119 249 743 1496 888 1775 288 558 640 1224 722 1369 l30
54 24 -107 c64 -286 194 -601 354 -857 54 -86 1291 -1806 1377 -1914 82 -103
313 -331 424 -419 504 -397 1156 -632 1933 -696 170 -15 635 -15 800 -1 1178
100 2365 530 3480 1259 851 556 1598 1259 2175 2047 608 830 994 1737 1104
2595 98 758 -45 1491 -397 2045 -45 70 -262 374 -642 900 -115 159 -323 448
-544 755 -170 236 -219 296 -366 448 -483 502 -1138 803 -1978 913 -204 27
-714 37 -948 20 -1093 -82 -2209 -459 -3284 -1111 l-40 -25 16 25 c134 212
712 1082 989 1490 882 1300 1938 2757 2955 4079 310 402 377 486 383 484 3 -1
33 -68 67 -150 77 -186 132 -294 203 -403 379 -584 1034 -976 1942 -1160 173
-35 516 -85 640 -92 l45 -3 -62 -42 c-152 -105 -177 -193 -154 -543 31 -453
100 -743 248 -1033 210 -411 567 -676 1036 -766 559 -108 1314 26 2273 405
253 99 534 224 576 254 90 64 135 164 125 274 -4 51 -19 88 -89 225 -324 640
-724 1134 -1156 1429 l-104 71 44 11 c1156 301 2358 840 3328 1493 1212 816
2079 1814 2410 2772 100 292 139 501 147 790 6 224 -4 346 -44 525 -37 170
-59 230 -323 875 -133 325 -291 712 -352 860 -120 296 -182 423 -268 554 -156
237 -402 478 -660 647 -508 332 -1171 529 -1985 590 -267 20 -877 14 -1124
-10 -85 -8 -157 -14 -159 -11 -7 7 980 1005 1498 1514 997 979 1743 1688 2655
2526 533 489 906 825 916 825 5 0 51 -21 102 -46z m-4388 -5804 c381 -26 688
-85 1007 -196 57 -20 114 -42 128 -50 24 -14 22 -14 -25 -9 -836 91 -1865 -9
-2890 -281 -1758 -468 -3456 -1380 -4549 -2443 -59 -58 -104 -97 -98 -86 24
47 167 253 254 367 535 695 1320 1300 2358 1819 1210 605 2716 952 3815 879z
m2075 -190 c170 -112 308 -238 411 -375 49 -65 112 -165 107 -170 -2 -2 -55
28 -118 66 -107 64 -118 74 -175 153 -116 163 -231 285 -385 409 l-35 28 50
-24 c28 -14 93 -53 145 -87z m-9415 -4136 c-3 -17 -12 -39 -20 -50 -13 -17
-14 -13 -10 41 3 33 11 103 18 155 l12 95 3 -105 c2 -58 0 -119 -3 -136z
m4745 -4124 c506 -97 955 -481 1369 -1173 29 -49 51 -90 50 -92 -2 -2 -27 -12
-55 -22 -41 -16 -54 -17 -70 -7 -10 7 -71 26 -136 43 -296 78 -426 131 -898
361 -212 104 -426 204 -476 224 -280 110 -515 152 -756 134 -136 -10 -169 -34
-154 -112 8 -42 34 -54 196 -94 198 -47 312 -94 680 -281 663 -336 765 -379
1015 -430 53 -11 99 -22 101 -24 12 -11 -486 -156 -676 -196 -295 -63 -620
-88 -812 -62 -265 35 -463 136 -597 304 -162 205 -270 562 -275 915 l-1 106
85 53 c128 80 430 226 560 271 306 106 587 133 850 82z m-4926 -3820 c604 -77
1092 -291 1474 -644 34 -32 76 -75 92 -96 l30 -38 -88 38 c-48 21 -114 47
-148 59 -41 15 -88 45 -145 93 -340 283 -782 481 -1314 588 -120 24 -89 24 99
0z m-339 -454 c156 -21 256 -38 251 -43 -2 -3 -53 -9 -113 -14 -1437 -120
-3034 -844 -4361 -1977 -690 -589 -1290 -1294 -1691 -1987 -44 -77 -85 -147
-90 -155 -28 -44 72 276 146 465 470 1204 1605 2382 2978 3091 721 372 1437
579 2200 638 113 8 575 -4 680 -18z m-6635 -5161 c12 -154 44 -352 79 -485 17
-64 19 -85 10 -154 -6 -45 -12 -82 -13 -84 -6 -5 -46 153 -66 256 -38 197 -51
476 -32 703 l7 94 2 -90 c1 -49 7 -157 13 -240z m37315 -2886 c1755 -58 3809
-353 5660 -811 l330 -82 -125 -13 c-3522 -369 -7560 -917 -11595 -1573 -594
-96 -2167 -361 -2349 -395 -43 -8 -81 -15 -85 -15 -3 0 52 32 123 70 374 204
718 511 1002 895 97 132 432 458 560 545 12 8 55 40 95 71 213 160 426 287
734 439 642 317 1376 538 2280 689 1002 166 2074 224 3370 180z m-12355 -2584
c324 -31 548 -79 937 -199 721 -224 1210 -331 1653 -362 l105 -7 -70 -13 c-38
-7 -248 -45 -465 -84 -1523 -274 -3537 -659 -5352 -1023 -469 -94 -516 -102
-506 -84 15 28 122 179 182 257 442 569 1018 998 1698 1264 316 123 707 216
1058 250 183 18 580 19 760 1z m-10378 -2225 c151 -47 268 -160 366 -357 62
-124 141 -358 157 -466 l7 -43 -239 -53 c-727 -161 -1612 -359 -2437 -547
-301 -69 -550 -123 -553 -121 -11 11 437 467 607 618 367 327 673 545 965 692
50 24 100 48 113 52 12 3 71 29 130 57 372 175 675 233 884 168z m-12497
-2680 c466 -50 815 -159 1086 -340 112 -75 264 -225 335 -330 59 -86 119 -198
111 -206 -3 -3 -819 -210 -1814 -459 -1560 -390 -1827 -455 -1948 -468 -252
-29 -366 -38 -615 -44 -691 -17 -1266 96 -1735 341 -126 65 -296 174 -360 229
l-38 33 359 97 c559 152 1425 395 1824 512 118 34 334 97 480 140 295 85 808
238 1180 351 135 41 290 88 345 105 55 17 118 37 140 45 32 11 89 13 295 9
140 -2 300 -9 355 -15z"/>
<path d="M44535 64088 c-433 -49 -890 -246 -1265 -546 -194 -156 -418 -401
-572 -627 -169 -247 -310 -577 -371 -870 -38 -179 -49 -302 -45 -496 2 -141 6
-180 20 -206 50 -91 196 -100 257 -15 11 16 32 75 46 132 86 340 263 731 471
1044 32 49 69 105 81 124 48 79 197 256 333 396 362 372 745 624 1215 801 92
34 114 46 133 75 41 60 16 154 -49 187 -27 14 -135 15 -254 1z"/>
<path d="M44586 62754 c-426 -77 -835 -393 -1026 -792 -100 -210 -140 -453
-110 -664 18 -121 58 -168 145 -168 77 0 98 20 169 160 151 298 329 551 551
779 167 172 312 293 495 413 74 49 140 99 147 111 7 12 12 42 13 66 0 36 -6
49 -34 77 l-34 34 -118 -1 c-66 0 -155 -7 -198 -15z"/>
<path d="M62565 45944 c-536 -42 -980 -202 -1353 -488 -175 -134 -412 -396
-465 -515 -47 -107 20 -211 138 -211 48 0 57 5 164 85 384 289 849 482 1366
568 228 39 406 50 663 44 330 -8 568 -43 890 -133 l163 -45 37 18 c55 27 85
77 79 133 -6 55 -45 93 -181 177 -374 231 -806 356 -1271 367 -99 2 -202 2
-230 0z"/>
<path d="M40770 57896 c-357 -52 -672 -186 -989 -423 -150 -113 -436 -398
-561 -561 -194 -253 -349 -499 -502 -799 -87 -170 -88 -173 -88 -246 0 -42 7
-94 17 -123 24 -70 99 -140 199 -183 691 -301 1225 -481 1709 -575 267 -52
354 -60 635 -60 235 -1 279 2 385 22 747 142 1172 656 1291 1562 13 95 18 205
18 370 1 224 0 237 -21 276 -37 68 -67 97 -185 176 -449 300 -855 475 -1273
549 -154 27 -492 35 -635 15z m564 -626 c239 -47 481 -139 732 -280 153 -86
214 -127 214 -143 0 -71 -26 -310 -46 -417 -119 -646 -466 -924 -1119 -897
-321 13 -712 97 -1159 249 -234 79 -224 69 -114 108 218 77 482 201 903 425
252 134 422 199 619 236 119 23 291 30 412 16 67 -7 73 -6 100 16 38 33 39 90
2 122 -41 35 -164 82 -278 105 -91 19 -126 21 -265 17 -225 -8 -418 -52 -635
-146 -230 -100 -890 -479 -1160 -667 l-75 -52 -52 24 c-29 12 -53 26 -53 30 0
11 97 170 183 299 397 595 836 914 1347 979 85 11 338 -3 444 -24z"/>
<path d="M42110 50029 c-583 -42 -1112 -233 -1529 -554 -727 -558 -1188 -1503
-1386 -2840 -54 -363 -47 -435 54 -536 66 -65 115 -85 236 -94 159 -12 202
-14 305 -21 317 -18 481 -22 940 -19 505 3 657 11 1000 51 1067 123 1790 458
2187 1012 144 201 251 451 302 702 34 171 44 282 44 485 -1 387 -72 774 -229
1245 -110 329 -117 336 -455 419 -533 132 -1024 182 -1469 150z m620 -619
c242 -24 692 -107 716 -132 29 -30 133 -418 170 -635 101 -599 3 -1060 -292
-1373 -363 -384 -986 -600 -1954 -675 -187 -15 -990 -33 -990 -23 0 3 37 33
83 68 162 126 425 354 572 497 87 85 307 318 375 398 93 109 374 405 461 485
325 299 574 440 962 540 98 26 131 50 141 105 8 42 -13 98 -47 119 -59 39
-319 39 -511 0 -352 -71 -761 -308 -1077 -624 -286 -285 -784 -868 -1083
-1267 -143 -191 -149 -202 -144 -263 l3 -49 -110 5 c-142 6 -195 13 -195 24 0
5 16 96 35 202 269 1467 904 2316 1905 2547 120 27 283 52 414 61 124 9 422 4
566 -10z"/>
<path d="M43723 44940 c-1472 -53 -2820 -412 -3791 -1010 -772 -476 -1254
-1091 -1377 -1757 -29 -154 -32 -229 -45 -913 -6 -283 -13 -657 -16 -830 -4
-211 -3 -348 5 -415 61 -533 308 -999 763 -1440 885 -860 2397 -1436 4178
-1595 485 -43 1163 -49 1590 -15 242 19 446 39 580 56 1500 190 2785 713 3534
1439 172 168 282 297 396 467 192 288 303 573 345 886 9 70 19 393 32 1035 16
874 16 942 1 1065 -50 390 -212 758 -487 1107 -112 141 -386 412 -549 542
-975 778 -2505 1274 -4217 1367 -276 15 -685 20 -942 11z m1067 -934 c583 -50
1071 -140 1556 -286 616 -186 1203 -474 1574 -774 98 -79 242 -208 237 -213
-2 -2 -33 13 -68 33 -360 204 -864 407 -1377 555 -1679 483 -3810 488 -5432
13 -180 -53 -455 -145 -552 -185 -38 -15 -68 -26 -68 -24 0 1 48 34 108 72
457 296 1008 515 1647 657 369 81 767 135 1275 170 141 10 926 -3 1100 -18z
m4319 -1861 c22 -55 46 -127 55 -160 20 -83 31 -162 19 -150 -30 32 -83 115
-83 131 0 38 -40 207 -69 292 -16 48 -32 96 -36 107 -20 58 81 -135 114 -220z"/>
<path d="M54165 41574 c-376 -36 -677 -125 -1033 -303 -262 -131 -542 -308
-611 -387 -67 -76 -75 -121 -68 -383 9 -336 48 -581 132 -838 109 -332 289
-594 534 -779 101 -76 288 -171 418 -214 604 -194 1464 -58 2623 415 338 138
425 181 473 234 46 51 62 83 76 152 17 84 1 141 -93 324 -437 846 -973 1402
-1586 1645 -126 50 -332 104 -455 119 -98 12 -346 21 -410 15z m379 -630 c453
-79 871 -399 1245 -954 98 -146 196 -308 190 -314 -2 -2 -26 -13 -53 -25 -42
-18 -51 -19 -65 -7 -9 7 -72 28 -141 46 -286 73 -442 136 -870 347 -377 185
-474 229 -637 284 -203 69 -291 83 -514 84 -214 0 -238 -5 -259 -55 -25 -60
16 -113 97 -125 145 -20 423 -122 653 -238 80 -41 273 -139 430 -219 354 -180
536 -248 785 -294 l40 -7 -90 -29 c-319 -105 -559 -166 -820 -209 -152 -26
-474 -36 -597 -20 -346 46 -566 197 -706 484 -96 196 -157 471 -164 746 l-3
94 115 69 c303 181 581 291 865 342 112 20 386 20 499 0z"/>
<path d="M32865 39743 c-22 -2 -92 -13 -155 -24 -776 -133 -1456 -678 -2022
-1619 -99 -164 -261 -472 -283 -535 -49 -145 10 -322 134 -399 20 -13 139 -67
265 -120 801 -342 1452 -541 2036 -621 159 -22 538 -31 681 -16 337 36 611
129 852 293 132 89 315 275 405 412 256 388 384 891 386 1516 1 201 0 218 -21
262 -45 96 -148 179 -433 350 -466 279 -897 439 -1330 493 -113 14 -402 18
-515 8z m391 -684 c350 -34 776 -194 1148 -432 l79 -51 -7 -122 c-21 -390
-110 -717 -257 -944 -59 -90 -190 -218 -276 -269 -401 -238 -1053 -206 -1983
98 -266 87 -320 108 -300 115 199 70 406 157 604 251 109 52 181 90 496 259
423 228 766 317 1103 286 158 -14 178 -8 196 55 18 65 0 90 -94 135 -381 182
-879 124 -1466 -170 -214 -108 -796 -449 -1017 -597 l-153 -102 -52 20 c-29
11 -56 24 -61 29 -11 11 119 231 241 406 340 491 724 816 1129 957 217 76 430
100 670 76z"/>
</g>
</svg>
